<svg width="179" height="170" viewBox="0 0 179 170" fill="none" xmlns="http://www.w3.org/2000/svg">
<path d="M134.733 98.4288C118.092 98.4288 104.136 110.328 100.557 126.163C92.0584 122.495 84.275 123.479 78.3704 126.073C74.7024 110.149 60.746 98.4288 44.1952 98.4288C24.7815 98.4288 8.94639 114.443 8.94639 134.214C8.94639 153.986 24.7815 170 44.1952 170C62.6248 170 77.6547 155.507 79.0861 137.077C82.1279 134.93 90.0902 130.904 99.8418 137.256C101.452 155.596 116.303 170 134.733 170C154.146 170 169.981 153.986 169.981 134.214C169.981 114.443 154.146 98.4288 134.733 98.4288ZM44.1952 159.801C30.2388 159.801 19.0558 148.35 19.0558 134.214C19.0558 120.079 30.3283 108.628 44.1952 108.628C58.1516 108.628 69.3346 120.079 69.3346 134.214C69.3346 148.35 58.1516 159.801 44.1952 159.801ZM134.733 159.801C120.776 159.801 109.593 148.35 109.593 134.214C109.593 120.079 120.776 108.628 134.733 108.628C148.689 108.628 159.962 120.079 159.962 134.214C159.962 148.35 148.6 159.801 134.733 159.801ZM178.928 76.0629H0V89.4825H178.928V76.0629ZM121.045 5.65474C119.077 1.27101 114.067 -1.05505 109.325 0.465833L89.4639 7.08616L69.5135 0.465833L69.0662 0.376369C64.3246 -0.96559 59.3146 1.5394 57.5253 6.10206L35.7856 62.6433H143.142L121.313 6.10206L121.045 5.65474Z" fill="#AD538E"/>
</svg>
