<svg width="146" height="170" viewBox="0 0 146 170" fill="none" xmlns="http://www.w3.org/2000/svg">
<path d="M145.714 137.619V145.714H0V137.619L16.1905 121.429V72.8571C16.1905 47.7619 32.6238 25.6619 56.6667 18.5381C56.6667 17.7286 56.6667 17 56.6667 16.1905C56.6667 11.8965 58.3724 7.77838 61.4087 4.74208C64.4451 1.70578 68.5632 0 72.8571 0C77.1511 0 81.2692 1.70578 84.3055 4.74208C87.3418 7.77838 89.0476 11.8965 89.0476 16.1905C89.0476 17 89.0476 17.7286 89.0476 18.5381C113.09 25.6619 129.524 47.7619 129.524 72.8571V121.429L145.714 137.619ZM89.0476 153.81C89.0476 158.103 87.3418 162.222 84.3055 165.258C81.2692 168.294 77.1511 170 72.8571 170C68.5632 170 64.4451 168.294 61.4087 165.258C58.3724 162.222 56.6667 158.103 56.6667 153.81" fill="#4009A9"/>
</svg>
