<svg width="162" height="170" viewBox="0 0 162 170" fill="none" xmlns="http://www.w3.org/2000/svg">
<path d="M128.706 81.7122C113.275 66.2816 88.2878 66.3693 72.9448 81.7999C57.5142 97.2305 57.5142 122.218 72.9448 137.561C86.0083 150.536 106.173 152.816 121.779 143.084L149.046 170L161.233 157.813L134.141 130.547C144.048 115.028 141.769 94.688 128.706 81.7122ZM116.343 125.111C107.751 133.703 93.8989 133.615 85.3069 125.111C76.8025 116.519 76.8025 102.666 85.3945 94.0743C93.8989 85.5699 107.751 85.5699 116.343 94.0743C124.848 102.666 124.848 116.519 116.343 125.111ZM60.4951 149.923C54.7963 144.136 50.3249 137.21 47.5193 129.582C19.902 124.936 0 111.872 0 96.4415V122.744C0 142.12 31.3873 157.813 70.1393 157.813C66.6323 155.534 63.3883 152.904 60.4951 149.923ZM0 52.6044V78.9067C0 93.6359 18.1485 106.261 43.837 111.346C43.837 110.732 43.837 110.206 43.837 109.593C43.837 101.439 45.5905 93.3729 48.9221 86.0083C20.5157 81.5369 0 68.2981 0 52.6044ZM70.1393 0C31.3873 0 0 15.6937 0 35.0696C0 52.6044 26.3022 67.3337 60.0567 70.1393H60.4951C71.016 59.0923 85.5699 52.6044 100.825 52.6044C108.804 52.6044 116.694 54.2702 123.971 57.5142C133.002 53.3935 139.139 44.8891 140.279 35.0696C140.279 15.6937 108.891 0 70.1393 0Z" fill="white"/>
</svg>
