<svg width="226" height="170" viewBox="0 0 226 170" fill="none" xmlns="http://www.w3.org/2000/svg">
<path d="M43.5625 63.75L21.25 148.75V42.5H201.875C201.875 36.8641 199.636 31.4591 195.651 27.474C191.666 23.4888 186.261 21.25 180.625 21.25H106.25L85 0H21.25C15.6142 0 10.2091 2.23883 6.22398 6.22398C2.23883 10.2091 0 15.6141 0 21.25V148.75C0 154.386 2.23883 159.791 6.22398 163.776C10.2091 167.761 15.6142 170 21.25 170H180.625C190.188 170 198.688 163.625 200.813 154.062L225.25 63.75H43.5625ZM180.625 148.75H42.5L59.5 85H197.625L180.625 148.75Z" fill="white"/>
</svg>
