<svg width="43" height="170" viewBox="0 0 43 170" fill="none" xmlns="http://www.w3.org/2000/svg">
<path d="M21.25 127.5C26.8859 127.5 32.2909 129.739 36.276 133.724C40.2612 137.709 42.5 143.114 42.5 148.75C42.5 154.386 40.2612 159.791 36.276 163.776C32.2909 167.761 26.8859 170 21.25 170C15.6141 170 10.2091 167.761 6.22398 163.776C2.23884 159.791 0 154.386 0 148.75C0 143.114 2.23884 137.709 6.22398 133.724C10.2091 129.739 15.6141 127.5 21.25 127.5ZM21.25 63.75C26.8859 63.75 32.2909 65.9888 36.276 69.974C40.2612 73.9591 42.5 79.3641 42.5 85C42.5 90.6359 40.2612 96.0409 36.276 100.026C32.2909 104.011 26.8859 106.25 21.25 106.25C15.6141 106.25 10.2091 104.011 6.22398 100.026C2.23884 96.0409 0 90.6359 0 85C0 79.3641 2.23884 73.9591 6.22398 69.974C10.2091 65.9888 15.6141 63.75 21.25 63.75V63.75ZM21.25 0C26.8859 0 32.2909 2.23883 36.276 6.22398C40.2612 10.2091 42.5 15.6141 42.5 21.25C42.5 26.8859 40.2612 32.2909 36.276 36.276C32.2909 40.2612 26.8859 42.5 21.25 42.5C15.6141 42.5 10.2091 40.2612 6.22398 36.276C2.23884 32.2909 0 26.8859 0 21.25C0 15.6141 2.23884 10.2091 6.22398 6.22398C10.2091 2.23883 15.6141 0 21.25 0Z" fill="#0034CD"/>
</svg>
