<svg width="170" height="170" viewBox="0 0 170 170" fill="none" xmlns="http://www.w3.org/2000/svg">
<path d="M93.2148 0V17.1958C130.586 21.7927 157.061 55.7586 152.464 93.1297C148.548 124.116 124.201 148.718 93.2148 152.379V169.404C140.035 164.722 174.086 123.18 169.404 76.3595C165.573 35.9239 133.48 4.001 93.2148 0ZM76.1893 0.255383C59.5894 1.87281 43.7556 8.25739 30.8162 18.9835L42.9895 31.5824C52.5238 23.9209 64.016 18.9835 76.1893 17.2809V0.255383ZM18.8132 30.9865C8.08713 43.9259 1.70255 59.6745 0 76.3595H17.0255C18.643 64.2714 23.4101 52.7792 30.9865 43.1597L18.8132 30.9865ZM0.0851276 93.3851C1.78768 110.07 8.34251 125.819 18.8983 138.758L30.9865 126.585C23.4952 116.965 18.643 105.473 17.1107 93.3851H0.0851276ZM42.9895 139.099L30.8162 150.761C43.6705 161.487 59.5043 168.212 76.1893 170V152.974C64.1011 151.442 52.6089 146.59 42.9895 139.099ZM93.2148 135.949H76.1893V118.923H93.2148V135.949ZM93.2148 110.411H76.1893C76.1893 82.7441 101.728 84.8723 101.728 67.8468C101.728 58.4827 94.0661 50.8212 84.702 50.8212C75.338 50.8212 67.6765 58.4827 67.6765 67.8468H50.651C50.651 49.0336 65.8888 33.7957 84.702 33.7957C103.515 33.7957 118.753 49.0336 118.753 67.8468C118.753 89.1287 93.2148 91.2569 93.2148 110.411Z" fill="#007ECD"/>
</svg>
